<?xml version="1.0" encoding="utf-8"?>
<!-- Generator: Adobe Illustrator 24.0.3, SVG Export Plug-In . SVG Version: 6.00 Build 0)  -->
<svg version="1.1" id="Layer_1" xmlns="http://www.w3.org/2000/svg" xmlns:xlink="http://www.w3.org/1999/xlink" x="0px" y="0px"
	 viewBox="0 0 1200.5 436.1" style="enable-background:new 0 0 1200.5 436.1;" xml:space="preserve">
<style type="text/css">
	.st0{fill:#7E6CEE;}
	.st1{fill:#7B68EE;}
</style>
<g id="Walty_logo_SVG" transform="translate(-480.514 -548)">
	<g id="home_icon">
		<path class="st0" d="M893.5,911.4l-0.9-163.1c-1-8.8-3.2-17.4-6.7-25.5c-5.1-11.4-14.6-21.5-14.6-21.5l-140-138.3
			c0,0-15.6-15.1-43.4-15.1s-48.7,17.7-48.7,17.7L509.8,694.2c0,0-12.7,10.7-20.5,24.8c-6.8,12.4-8.7,28.4-8.7,28.4v169.3
			c0,0,0.5,21.1,19.5,44.3c19,23.2,52.3,23,52.3,23h272.1c0,0,25.9,2.2,48.7-23S893.5,911.4,893.5,911.4z M847.4,936.2
			c-12.3,13.6-26.6,13.5-26.6,13.5H553.2c0,0-12.2,0.5-24.8-10.9c-7.4-6.6-12.9-15.8-13.4-25.7V752.7c0,0,1.9-11.3,5.4-16.8
			s16.8-18.6,16.8-18.6l117-115.2c0,0,14.2-17.8,32.8-17.7s31,16,31,16l124.1,122.3c0,0,8.9,8.2,12.9,17.3
			c3.4,7.6,3.1,16.4,3.1,16.4v152.4C858.2,908.7,859.7,922.6,847.4,936.2z"/>
		<path id="Shape_1_copy_2" class="st1" d="M762.4,867.8c15.7-6.5,26.7-19.6,26.7-19.6s10.8-9.9,22.6-0.2s1.4,21.4,1.4,21.4
			s-22,29.3-73.5,35.4s-96.8-26.5-96.8-26.5s-13.3-12.1-3.9-23.9s23.4,0.1,23.4,0.1s14.8,9.6,30.9,14.7
			C712.6,875.4,738.5,877.8,762.4,867.8z"/>
	</g>
	<g id="text">
		<path id="w" d="M980.8,741.7h33.5l31.7,98.7l27.9-98.7h27.9l29.8,98.7l31.7-98.7h33.5l-50.3,145.3h-29.8l-29.8-91.3l-27.9,91.3
			h-29.8L980.8,741.7z"/>
		<path id="a" d="M1348.3,885.8V739.6h-33v22.4h-0.5c0,0-6.9-22.7-45.9-24.5s-70.1,33.7-70.1,75.7s29.9,74.5,68.3,74.4
			s47.7-24.5,47.7-24.5h0.5v22.7H1348.3z M1315.8,813c0.3,6.5-1.8,43.2-41.6,44s-42.4-44-42.4-44s0.4-45.1,40.8-44.8
			S1315.5,806.5,1315.8,813L1315.8,813z"/>
		<rect id="l" x="1366.3" y="665.3" width="33.5" height="219.8"/>
		<path id="t" d="M1465,881.4c-25.5-9.4-24.2-41-24.2-41v-74.5h-18.6v-28.4h18.6v-46.1l33.5-3.7v49.8h42.8v28.4h-42.8v68.9
			c0,0-2.1,15.5,9.3,18.6s26.1-5.6,26.1-5.6l7.4,27.9c0,0-11.2,8.7-31.1,8.7C1479,884.4,1471.9,883.4,1465,881.4z"/>
		<path id="y" d="M1533.9,739.8l59.6,137.8l-26.1,67h33.5l80.1-204.9h-33.5l-37.2,96.8l-39.1-96.8H1533.9z"/>
	</g>
</g>
</svg>
